<svg width="140" height="29" viewBox="0 0 140 29" fill="none" xmlns="http://www.w3.org/2000/svg">
<path d="M10.0691 29C8.91263 29 7.80641 28.832 6.75047 28.496C5.69453 28.16 4.72658 27.656 3.84663 26.984C2.96669 26.3119 2.19987 25.4978 1.5462 24.5414C0.89252 23.5593 0.377121 22.422 0 21.1297L4.78944 19.1912C5.14142 20.5869 5.75738 21.75 6.63733 22.6805C7.51728 23.5851 8.67379 24.0374 10.1068 24.0374C10.6348 24.0374 11.1376 23.9728 11.6153 23.8436C12.1182 23.6885 12.5581 23.4817 12.9353 23.2233C13.3375 22.9389 13.6518 22.59 13.8781 22.1765C14.1043 21.7629 14.2175 21.2848 14.2175 20.742C14.2175 20.225 14.1295 19.7598 13.9535 19.3463C13.7775 18.9327 13.4758 18.545 13.0484 18.1832C12.6461 17.8213 12.1056 17.4724 11.4268 17.1364C10.7731 16.8004 9.956 16.4514 8.97548 16.0896L7.31615 15.4693C6.58705 15.2108 5.84538 14.8619 5.09113 14.4225C4.36203 13.9831 3.69579 13.4532 3.09239 12.8329C2.489 12.2126 1.98617 11.4889 1.58391 10.6618C1.20679 9.80882 1.01823 8.8525 1.01823 7.79278C1.01823 6.70722 1.21936 5.6992 1.62162 4.76872C2.04902 3.81239 2.63985 2.98529 3.39409 2.28743C4.17347 1.56373 5.09113 1.00802 6.14707 0.620322C7.22815 0.206774 8.42237 0 9.72972 0C11.0874 0 12.2564 0.193851 13.2369 0.581553C14.2426 0.943406 15.0848 1.42157 15.7637 2.01604C16.4676 2.58467 17.0333 3.21791 17.4607 3.91578C17.8881 4.61364 18.2024 5.27273 18.4035 5.89305L13.9158 7.83155C13.6644 7.05615 13.1992 6.35829 12.5204 5.73797C11.8667 5.11765 10.9617 4.80749 9.80515 4.80749C8.69893 4.80749 7.78126 5.07888 7.05216 5.62166C6.32306 6.13859 5.95851 6.82353 5.95851 7.67647C5.95851 8.50357 6.31049 9.21435 7.01445 9.80882C7.71841 10.3775 8.8372 10.9332 10.3708 11.4759L12.0679 12.0575C13.149 12.4452 14.1295 12.8975 15.0094 13.4144C15.9145 13.9055 16.6813 14.5 17.3099 15.1979C17.9635 15.8957 18.4538 16.697 18.7806 17.6016C19.1326 18.4804 19.3086 19.5013 19.3086 20.6644C19.3086 22.1119 19.0195 23.3654 18.4412 24.4251C17.8881 25.459 17.1716 26.3119 16.2916 26.984C15.4117 27.656 14.4186 28.16 13.3124 28.496C12.2062 28.832 11.1251 29 10.0691 29Z" fill="#1DC88A"/>
<path d="M25.6516 6.62968C25.2242 6.62968 24.8094 6.55214 24.4071 6.39706C24.03 6.21613 23.6906 5.98351 23.3889 5.6992C23.1123 5.38904 22.886 5.04011 22.7101 4.65241C22.5592 4.26471 22.4838 3.83824 22.4838 3.37299C22.4838 2.90775 22.5592 2.48128 22.7101 2.09358C22.886 1.70588 23.1123 1.36988 23.3889 1.08556C23.6906 0.775402 24.03 0.542781 24.4071 0.3877C24.8094 0.206774 25.2242 0.116311 25.6516 0.116311C26.5315 0.116311 27.2858 0.439394 27.9143 1.08556C28.5429 1.70588 28.8571 2.46836 28.8571 3.37299C28.8571 4.27763 28.5429 5.05303 27.9143 5.6992C27.2858 6.31952 26.5315 6.62968 25.6516 6.62968ZM23.2003 28.3797V9.38235H28.1406V28.3797H23.2003Z" fill="#1DC88A"/>
<path d="M33.2615 28.3797V0.620322H42.7649C44.0471 0.620322 45.2414 0.840018 46.3476 1.27941C47.479 1.69296 48.4595 2.28743 49.2891 3.06283C50.1188 3.83824 50.7725 4.76872 51.2502 5.85428C51.7278 6.91399 51.9667 8.09002 51.9667 9.38235C51.9667 10.7005 51.7278 11.9024 51.2502 12.988C50.7725 14.0477 50.1188 14.9652 49.2891 15.7406C48.4595 16.516 47.479 17.1234 46.3476 17.5628C45.2414 17.9764 44.0471 18.1832 42.7649 18.1832H38.3526V28.3797H33.2615ZM42.8404 13.2206C44.1729 13.2206 45.1785 12.8329 45.8573 12.0575C46.5361 11.2821 46.8756 10.3904 46.8756 9.38235C46.8756 8.89127 46.7876 8.4131 46.6116 7.94786C46.4607 7.48262 46.2093 7.082 45.8573 6.74599C45.5305 6.38414 45.1157 6.09982 44.6128 5.89305C44.11 5.68628 43.5192 5.58289 42.8404 5.58289H38.3526V13.2206H42.8404Z" fill="#1DC88A"/>
<path d="M60.8096 0.620322H66.6173L76.7618 28.3797H71.1427L68.9177 21.75H58.5092L56.2841 28.3797H50.665L60.8096 0.620322ZM67.2584 16.9425L64.8448 10.0027L63.8643 6.62968H63.5626L62.5821 10.0027L60.1685 16.9425H67.2584Z" fill="#1DC88A"/>
<path d="M79.9229 0.620322H89.0492C91.1862 0.620322 93.1095 0.956329 94.8191 1.62834C96.5288 2.30036 97.987 3.25668 99.1937 4.49733C100.401 5.71212 101.318 7.17246 101.947 8.87834C102.6 10.5842 102.927 12.4581 102.927 14.5C102.927 16.5677 102.6 18.4545 101.947 20.1604C101.318 21.8663 100.401 23.3266 99.1937 24.5414C97.987 25.7562 96.5288 26.6996 94.8191 27.3717C93.1095 28.0437 91.1862 28.3797 89.0492 28.3797H79.9229V0.620322ZM88.8229 23.4171C90.3062 23.4171 91.6136 23.2103 92.745 22.7968C93.8763 22.3574 94.8191 21.75 95.5734 20.9746C96.3276 20.1992 96.8933 19.2687 97.2704 18.1832C97.6475 17.0717 97.8361 15.844 97.8361 14.5C97.8361 13.156 97.6475 11.9412 97.2704 10.8556C96.8933 9.74421 96.3276 8.8008 95.5734 8.0254C94.8191 7.25 93.8763 6.65553 92.745 6.24198C91.6136 5.80259 90.3062 5.58289 88.8229 5.58289H85.014V23.4171H88.8229Z" fill="#1DC88A"/>
<path d="M107.028 0.620322H112.12V28.3797H107.028V0.620322Z" fill="#1DC88A"/>
<path d="M117.561 0.620322H122.652V12.5227H122.954L132.835 0.620322H138.982V0.930483L129.214 12.4064L140 28.0695V28.3797H133.777L125.745 16.5548L122.652 20.238V28.3797H117.561V0.620322Z" fill="#1DC88A"/>
</svg>
